<svg width="297" height="297" viewBox="0 0 297 297" fill="none" xmlns="http://www.w3.org/2000/svg">
<rect x="5" y="90" width="211" height="195" fill="#FBF6EF"/>
<path d="M165.942 0C175.452 0.87 181.522 5.4 187.942 12.12C192.162 16.46 195.002 18.73 200.942 20C204.322 19.87 207.212 19.22 210.442 18.25C221.302 15.03 229.242 15.55 239.942 19C242.142 30.56 244.132 42.09 245.192 53.81C245.272 54.69 245.352 55.56 245.432 56.46C245.922 62.32 246.022 68.13 245.942 74C246.872 73.84 247.812 73.68 248.772 73.52C261.722 71.68 278.002 70.85 289.442 78C295.302 82.69 295.302 82.69 295.942 87.31C296.202 90.92 295.962 91.97 294.192 95.31C284.102 105.32 265.182 104.27 252.032 104.22C251.172 104.22 250.302 104.21 249.412 104.21C246.722 104.19 244.032 104.19 241.342 104.19C239.632 104.18 237.922 104.17 236.212 104.17C235.412 104.17 234.612 104.17 233.782 104.16C228.172 104.12 228.172 104.12 225.942 103C225.942 103.91 225.952 104.82 225.952 105.76C226.012 127.91 226.062 150.06 226.102 172.21C226.112 182.92 226.132 193.63 226.172 204.35C226.202 213.68 226.222 223.02 226.222 232.36C226.232 237.3 226.242 242.25 226.262 247.19C226.282 251.84 226.282 256.5 226.282 261.16C226.282 262.86 226.292 264.57 226.302 266.27C226.312 268.61 226.312 270.94 226.302 273.28C226.302 274.59 226.312 275.89 226.312 277.24C225.752 282.91 224.472 288.02 220.062 291.88C214.662 295.55 210.382 296.29 203.912 296.26C203.112 296.26 202.312 296.27 201.482 296.27C198.792 296.28 196.102 296.28 193.422 296.27C191.492 296.28 189.562 296.28 187.632 296.29C182.392 296.3 177.152 296.3 171.922 296.3C167.542 296.3 163.172 296.31 158.802 296.31C148.482 296.32 138.162 296.32 127.832 296.32C117.192 296.31 106.552 296.32 95.9124 296.34C86.7724 296.36 77.6324 296.37 68.4924 296.36C63.0324 296.36 57.5724 296.36 52.1224 296.38C46.9824 296.39 41.8524 296.39 36.7124 296.38C34.8324 296.37 32.9524 296.38 31.0724 296.38C28.5024 296.4 25.9224 296.39 23.3524 296.37C22.6124 296.38 21.8724 296.39 21.1124 296.4C15.1024 296.33 9.9224 294.96 4.8724 291.64C-1.2776 284.47 0.112411 274.46 0.182411 265.58C0.172411 263.6 0.162412 261.61 0.152412 259.62C0.132412 254.23 0.142401 248.85 0.172401 243.46C0.192401 237.82 0.172401 232.17 0.172401 226.53C0.162401 217.06 0.182409 207.58 0.212409 198.1C0.252409 187.16 0.252398 176.21 0.232398 165.26C0.202398 154.72 0.212398 144.18 0.232398 133.64C0.242398 129.16 0.242398 124.68 0.232398 120.2C0.222398 114.92 0.232412 109.64 0.262412 104.36C0.272412 102.42 0.272412 100.49 0.262412 98.55C0.252412 95.91 0.272406 93.26 0.302406 90.61C0.292406 89.85 0.282407 89.09 0.272407 88.31C0.382407 82.51 2.29241 78.5 5.94241 74C11.0524 70.19 16.4624 70.59 22.5824 70.63C24.7024 70.61 26.8324 70.59 28.9624 70.58C32.2724 70.57 35.5924 70.56 38.9024 70.56C52.4024 70.55 64.8324 69.76 77.9424 66.46C83.5224 65.17 89.2524 64.6 94.9424 64C95.9824 63.89 97.0324 63.78 98.1024 63.66C110.012 62.6 121.992 62.91 133.942 63C134.192 62.17 134.452 61.34 134.712 60.48C136.092 56.56 137.822 52.95 139.692 49.24C140.052 48.5 140.422 47.77 140.802 47.01C141.992 44.63 143.182 42.25 144.382 39.88C144.782 39.07 145.192 38.26 145.602 37.43C162.802 3.14 162.802 3.14 165.942 0ZM35.5624 108.5C31.9224 114.11 31.1324 118.32 31.9424 125C33.9524 131.37 37.3524 134.95 43.1324 138.25C48.2024 139.6 53.2924 140.1 58.2324 138.05C63.2524 135.07 67.0524 131.67 68.9424 126C69.4524 119.78 69.7124 114.23 65.9424 109C61.3824 104.43 57.8724 101.88 51.2524 101.69C44.6824 101.76 40.0924 103.74 35.5624 108.5ZM124.772 163.88C123.092 165.54 121.502 167.23 119.942 169C119.282 169.66 118.622 170.32 117.942 171C117.612 166.38 117.282 161.76 116.942 157C107.042 157 97.1424 157 86.9424 157C86.9424 191.65 86.9424 226.3 86.9424 262C97.5024 262 108.062 262 118.942 262C118.982 257.69 119.012 253.38 119.052 248.94C119.092 245.48 119.132 242.03 119.182 238.58C119.222 234.94 119.262 231.3 119.292 227.67C119.312 224.16 119.352 220.65 119.402 217.14C119.432 215.16 119.442 213.19 119.452 211.21C119.602 201.87 120.682 194.54 127.212 187.48C131.222 184.06 135.812 182.88 141.002 182.62C146.512 183.15 150.352 184.36 154.252 188.38C157.332 193.17 158.192 196.93 158.262 202.63C158.272 203.27 158.282 203.92 158.292 204.58C158.322 206.69 158.342 208.81 158.352 210.93C158.372 212.4 158.392 213.87 158.412 215.34C158.462 219.21 158.502 223.07 158.542 226.94C158.592 231.58 158.652 236.22 158.712 240.87C158.802 247.91 158.872 254.96 158.942 262C169.832 262 180.722 262 191.942 262C192.002 249.83 192.002 249.83 192.042 237.65C192.052 232.68 192.062 227.71 192.092 222.74C192.112 218.72 192.122 214.71 192.132 210.7C192.132 209.17 192.142 207.65 192.152 206.13C192.252 191.15 191.352 176.82 180.822 165.12C165.152 151.14 140.772 150.04 124.772 163.88ZM33.9424 157C33.9424 191.65 33.9424 226.3 33.9424 262C44.8324 262 55.7224 262 66.9424 262C66.9424 227.35 66.9424 192.7 66.9424 157C56.0524 157 45.1624 157 33.9424 157Z" fill="#3A4A3F"/>
<path d="M165.942 0C175.452 0.87 181.522 5.4 187.942 12.12C192.162 16.46 195.002 18.73 200.942 20C204.322 19.87 207.212 19.22 210.442 18.25C221.302 15.03 229.242 15.55 239.942 19C242.142 30.56 244.132 42.09 245.192 53.81C245.272 54.69 245.352 55.56 245.432 56.46C245.922 62.32 246.022 68.13 245.942 74C246.872 73.84 247.812 73.68 248.772 73.52C261.722 71.68 278.002 70.85 289.442 78C295.302 82.69 295.302 82.69 295.942 87.31C296.202 90.92 295.962 91.97 294.192 95.31C283.802 105.62 264.002 104.35 250.442 104.32C249.592 104.32 248.752 104.32 247.882 104.31C247.012 104.31 246.142 104.31 245.252 104.3C225.172 104.22 207.592 101.09 188.212 95.9C160.602 88.58 132.512 83.28 104.322 78.81C103.522 78.69 102.722 78.56 101.902 78.43C92.3924 76.92 82.8924 75.57 73.3324 74.5C68.9224 73.85 65.0824 72.63 60.9424 71C63.8324 69.07 65.1824 68.59 68.4924 68C69.4124 67.84 70.3224 67.67 71.2624 67.5C72.7424 67.25 72.7424 67.25 74.2524 67C75.2824 66.83 76.3124 66.65 77.3724 66.47C96.2524 63.4 114.832 62.69 133.942 63C134.192 62.17 134.452 61.34 134.712 60.48C136.092 56.56 137.822 52.95 139.692 49.24C140.052 48.5 140.422 47.77 140.802 47.01C141.992 44.63 143.182 42.25 144.382 39.88C144.982 38.67 144.982 38.67 145.602 37.43C162.802 3.14 162.802 3.14 165.942 0Z" fill="#231305"/>
<path d="M167.942 5C172.732 5.49 175.492 6.72 179.322 9.62C180.732 10.7 180.732 10.7 182.172 11.79C185.872 14.74 189.452 17.8 192.942 21C192.612 21.66 192.282 22.32 191.942 23C201.132 25.51 208.962 23.33 217.882 20.79C223.992 19.11 229.582 18.36 235.942 19C239.892 36.24 242.682 54.28 241.942 72C210.202 72.53 173.272 65.8 144.942 51C146.482 45.76 148.802 41.22 151.382 36.44C152.272 34.76 153.162 33.09 154.052 31.41C154.522 30.54 154.992 29.66 155.472 28.76C158.032 23.96 160.542 19.13 163.062 14.31C164.012 12.52 164.952 10.72 165.892 8.93C166.572 7.62 167.262 6.31 167.942 5Z" fill="#5D310D"/>
<path d="M144.942 51C146.042 51.44 147.152 51.87 148.292 52.32C160.952 57.21 173.722 60.92 186.942 64C187.922 64.23 188.902 64.46 189.922 64.7C207.142 68.63 224.362 70.54 241.942 72C241.942 73.32 241.942 74.64 241.942 76C240.642 76.22 240.642 76.22 239.322 76.45C222.462 79.45 205.762 83.46 189.322 88.24C179.722 90.4 172.612 89.58 163.132 87C160.572 86.34 158.012 85.69 155.452 85.05C154.772 84.88 154.102 84.71 153.412 84.54C144.842 82.43 136.182 80.81 127.502 79.19C126.342 78.97 126.342 78.97 125.152 78.74C111.352 76.14 97.5824 74 83.5624 72.88C82.5324 72.79 81.5024 72.7 80.4324 72.61C77.9424 72.41 75.4424 72.2 72.9424 72C76.8024 68.14 83.3124 68.55 88.5624 67.88C89.2424 67.79 89.9224 67.7 90.6224 67.6C106.392 65.56 122.062 65.59 137.942 66C138.082 65.22 138.222 64.45 138.372 63.65C138.982 60.79 139.982 58.77 141.442 56.25C141.882 55.47 142.332 54.69 142.782 53.89C143.942 52 143.942 52 144.942 51Z" fill="#3B2009"/>
<path d="M265.005 77.6875C266.555 77.6575 266.555 77.6575 268.145 77.6375C276.115 77.6375 283.525 78.4775 290.065 83.3075C291.945 85.9975 291.945 85.9975 292.625 89.0675C291.945 91.9975 291.945 91.9975 289.505 94.1875C276.835 100.637 263.145 101.357 249.125 101.247C248.465 101.247 247.805 101.247 247.125 101.237C237.255 101.177 227.665 100.877 217.945 98.9974C216.995 98.8174 216.035 98.6375 215.055 98.4475C194.625 94.4675 194.625 94.4675 187.945 91.9975C188.945 89.9975 188.945 89.9975 190.945 89.2875C192.255 88.9575 192.255 88.9575 193.585 88.6375C194.565 88.3875 195.545 88.1475 196.545 87.8975C197.605 87.6375 198.665 87.3875 199.755 87.1275C200.835 86.8575 201.925 86.5975 203.045 86.3275C223.695 81.3675 243.725 77.9075 265.005 77.6875Z" fill="#5D310D"/>
<path d="M161.038 73.7984C166.188 75.9284 171.518 77.3884 176.878 78.8784C178.808 79.4184 180.728 79.9484 182.658 80.4884C183.538 80.7384 184.428 80.9884 185.338 81.2384C189.248 82.3784 193.098 83.6684 196.938 84.9984C193.918 86.5484 191.018 87.7184 187.758 88.6884C186.878 88.9584 185.998 89.2284 185.088 89.5084C177.178 90.7384 169.338 88.2484 161.688 86.3784C150.408 83.6884 139.088 81.3984 127.688 79.2484C126.908 79.0984 126.128 78.9484 125.328 78.7984C111.468 76.1684 97.6476 74.0084 83.5676 72.8784C82.5376 72.7884 81.4976 72.6984 80.4376 72.6084C77.9376 72.4084 75.4376 72.1984 72.9376 71.9984C89.0876 55.8584 143.698 66.0284 161.038 73.7984Z" fill="#5C300D"/>
<path d="M216.942 30C217.272 30 217.602 30 217.942 30C218.112 30.6 218.282 31.21 218.462 31.83C220.372 38.26 220.372 38.26 224.942 43C227.242 44.14 229.532 45.07 231.942 46C231.942 46.33 231.942 46.66 231.942 47C226.282 47.35 222.862 46.6 217.942 44C215.832 40.84 215.692 40.05 215.752 36.44C215.762 35.65 215.772 34.87 215.772 34.06C215.942 32 215.942 32 216.942 30Z" fill="#251405"/>
<path d="M139.942 50C141.262 50.33 142.582 50.66 143.942 51C142.482 56.31 139.962 60.46 136.942 65C135.622 64.34 134.302 63.68 132.942 63C136.412 56.56 136.412 56.56 139.942 50Z" fill="#090101"/>
</svg>
